<svg width="39" height="38" viewBox="0 0 39 38" version="1.1" xmlns="http://www.w3.org/2000/svg" xmlns:xlink="http://www.w3.org/1999/xlink" xmlns:figma="http://www.figma.com/figma/ns"><title>Arrow</title><desc>Created using Figma</desc><g id="Canvas" transform="translate(-50 103)" figma:type="canvas"><g id="Arrow" style="mix-blend-mode:normal;" figma:type="vector"><use xlink:href="#path0_stroke" transform="matrix(-1 1.22465e-16 -1.22465e-16 -1 89 -84)" fill="#F9AB7A" style="mix-blend-mode:normal;"/></g></g><defs><path id="path0_stroke" d="M 37.7678 1.76777C 38.7441 0.791456 38.7441 -0.791456 37.7678 -1.76777L 21.8579 -17.6777C 20.8816 -18.654 19.2986 -18.654 18.3223 -17.6777C 17.346 -16.7014 17.346 -15.1184 18.3223 -14.1421L 32.4645 0L 18.3223 14.1421C 17.346 15.1184 17.346 16.7014 18.3223 17.6777C 19.2986 18.654 20.8816 18.654 21.8579 17.6777L 37.7678 1.76777ZM 0 2.5L 36 2.5L 36 -2.5L 0 -2.5L 0 2.5Z"/></defs></svg>
