<svg width="1191" height="193" viewBox="0 0 1191 193" version="1.1" xmlns="http://www.w3.org/2000/svg" xmlns:xlink="http://www.w3.org/1999/xlink" xmlns:figma="http://www.figma.com/figma/ns"><title>Group</title><desc>Created using Figma</desc><g id="Canvas" transform="translate(1085 145)" figma:type="canvas"><g id="Group" style="mix-blend-mode:normal;" figma:type="frame"><g id="Rectangle 2" style="mix-blend-mode:normal;" figma:type="rounded-rectangle"><mask id="mask0_outline_ins"><use xlink:href="#path0_fill" fill="white" transform="translate(-152 -145)"/></mask><g mask="url(#mask0_outline_ins)"><use xlink:href="#path1_stroke_2x" transform="translate(-152 -145)" fill="#282424" style="mix-blend-mode:normal;"/></g></g><g id="Stock-X" style="mix-blend-mode:normal;" figma:type="text"><use xlink:href="#path2_fill" transform="translate(-1132 -176)" fill="#242121" style="mix-blend-mode:normal;"/></g><g id="Vector" style="mix-blend-mode:normal;" figma:type="vector"><use xlink:href="#path3_stroke" transform="translate(-135 -118)" fill="#282424" style="mix-blend-mode:normal;"/></g></g></g><defs><path id="path0_fill" d="M 0 0L 258 0L 258 193L 0 193L 0 0Z"/><path id="path1_stroke_2x" d="M 0 0L 0 -5L -5 -5L -5 0L 0 0ZM 258 0L 263 0L 263 -5L 258 -5L 258 0ZM 258 193L 258 198L 263 198L 263 193L 258 193ZM 0 193L -5 193L -5 198L 0 198L 0 193ZM 0 5L 258 5L 258 -5L 0 -5L 0 5ZM 253 0L 253 193L 263 193L 263 0L 253 0ZM 258 188L 0 188L 0 198L 258 198L 258 188ZM 5 193L 5 0L -5 0L -5 193L 5 193Z"/><path id="path2_fill" d="M 62.7832 96.445C 62.7832 102.868 64.4282 108.117 67.7182 112.19C 71.1649 116.263 75.5515 119.318 80.8782 121.355C 86.2049 123.235 92.0799 124.88 98.5032 126.29C 104.927 127.7 111.35 129.267 117.773 130.99C 124.197 132.713 130.072 134.985 135.398 137.805C 140.725 140.468 145.033 144.62 148.323 150.26C 151.77 155.9 153.493 162.872 153.493 171.175C 153.493 183.552 148.872 194.362 139.628 203.605C 130.385 212.848 117.695 217.47 101.558 217.47C 85.5782 217.47 72.5749 213.867 62.5482 206.66C 52.5215 199.453 47.5082 189.74 47.5082 177.52L 64.8982 177.52C 65.5249 185.04 68.7365 191.307 74.5332 196.32C 80.3299 201.177 88.9465 203.605 100.383 203.605C 111.977 203.605 121.142 200.628 127.878 194.675C 134.772 188.722 138.218 181.358 138.218 172.585C 138.218 163.655 135.085 156.997 128.818 152.61C 122.552 148.067 114.953 144.933 106.023 143.21C 97.2499 141.487 88.3982 139.528 79.4682 137.335C 70.6949 134.985 63.1749 130.52 56.9082 123.94C 50.6415 117.36 47.5082 107.803 47.5082 95.27C 47.5082 82.7367 52.1299 72.3967 61.3732 64.25C 70.7732 56.1033 83.0715 52.03 98.2682 52.03C 113.622 52.03 125.685 55.555 134.458 62.605C 143.232 69.655 148.558 79.055 150.438 90.805L 131.873 90.805C 131.247 84.225 127.957 78.5067 122.003 73.65C 116.05 68.6367 107.903 66.13 97.5632 66.13C 87.2232 66.13 78.8415 68.715 72.4182 73.885C 65.9949 79.055 62.7832 86.575 62.7832 96.445ZM 242.391 100.44L 206.906 100.44L 206.906 185.51C 206.906 191.933 208.159 196.477 210.666 199.14C 213.173 201.647 217.638 202.9 224.061 202.9L 242.391 202.9L 242.391 215.825L 220.536 215.825C 200.483 215.825 190.456 205.72 190.456 185.51L 190.456 100.44L 172.596 100.44L 172.596 87.515L 190.456 87.515L 190.456 55.32L 206.906 55.32L 206.906 87.515L 242.391 87.515L 242.391 100.44ZM 318.735 205.015C 332.052 205.015 343.567 200.237 353.28 190.68C 362.993 181.123 367.85 168.12 367.85 151.67C 367.85 135.063 363.228 122.06 353.985 112.66C 344.742 103.103 333.462 98.325 320.145 98.325C 306.828 98.325 295.705 103.025 286.775 112.425C 277.845 121.825 273.38 134.907 273.38 151.67C 273.38 168.433 277.61 181.515 286.07 190.915C 294.53 200.315 305.418 205.015 318.735 205.015ZM 318.735 218.175C 300.405 218.175 285.443 212.065 273.85 199.845C 262.413 187.625 256.695 171.645 256.695 151.905C 256.695 132.008 262.805 115.95 275.025 103.73C 287.245 91.3533 302.52 85.165 320.85 85.165C 339.18 85.165 354.455 91.3533 366.675 103.73C 378.895 115.95 385.005 131.93 385.005 151.67C 385.005 171.253 378.582 187.233 365.735 199.61C 352.888 211.987 337.222 218.175 318.735 218.175ZM 420.954 199.845C 409.518 187.625 403.799 171.567 403.799 151.67C 403.799 131.773 409.518 115.715 420.954 103.495C 432.391 91.275 447.274 85.165 465.604 85.165C 495.684 85.165 514.798 98.6383 522.944 125.585L 505.319 125.585C 502.656 116.968 497.878 110.31 490.984 105.61C 484.248 100.753 475.788 98.325 465.604 98.325C 452.288 98.325 441.478 102.947 433.174 112.19C 424.871 121.277 420.719 134.437 420.719 151.67C 420.719 168.747 424.871 181.907 433.174 191.15C 441.478 200.393 452.288 205.015 465.604 205.015C 475.788 205.015 484.248 202.665 490.984 197.965C 497.878 193.108 502.656 186.372 505.319 177.755L 522.944 177.755C 518.871 189.975 512.056 199.767 502.499 207.13C 492.943 214.493 480.644 218.175 465.604 218.175C 447.274 218.175 432.391 212.065 420.954 199.845ZM 569.383 215.825L 552.933 215.825L 552.933 41.925L 569.383 41.925L 569.383 144.855L 621.083 87.515L 644.818 87.515L 582.543 150.965L 644.818 215.825L 622.258 215.825L 569.383 158.25L 569.383 215.825ZM 670.57 135.925L 670.57 121.825L 761.985 121.825L 761.985 135.925L 670.57 135.925ZM 914.939 53.675L 865.119 134.75L 914.939 215.825L 897.079 215.825L 854.779 147.205L 815.064 215.825L 797.204 215.825L 847.024 134.75L 797.204 53.675L 815.064 53.675L 857.364 122.295L 897.079 53.675L 914.939 53.675Z"/><path id="path3_stroke" d="M 35 67L 33.0963 62.3766L 31.8684 62.8822L 31.0532 63.9303L 35 67ZM 52 60L 56.7667 58.4905L 55.1249 53.306L 50.0963 55.3766L 52 60ZM 71 120L 66.2333 121.509L 67.3386 125L 71 125L 71 120ZM 85 120L 85 125L 88.6498 125L 89.7621 121.524L 85 120ZM 109 45L 106.99 40.4218L 104.925 41.3283L 104.238 43.4761L 109 45ZM 150 27L 153.23 23.1831L 150.847 21.1673L 147.99 22.4218L 150 27ZM 189 60L 185.77 63.8169L 190.101 67.4811L 193.192 62.7249L 189 60ZM 3.94676 115.07L 38.9468 70.0697L 31.0532 63.9303L -3.94676 108.93L 3.94676 115.07ZM 36.9037 71.6234L 53.9037 64.6234L 50.0963 55.3766L 33.0963 62.3766L 36.9037 71.6234ZM 47.2333 61.5095L 66.2333 121.509L 75.7667 118.491L 56.7667 58.4905L 47.2333 61.5095ZM 71 125L 85 125L 85 115L 71 115L 71 125ZM 89.7621 121.524L 113.762 46.5239L 104.238 43.4761L 80.2379 118.476L 89.7621 121.524ZM 111.01 49.5782L 152.01 31.5782L 147.99 22.4218L 106.99 40.4218L 111.01 49.5782ZM 146.77 30.8169L 185.77 63.8169L 192.23 56.1831L 153.23 23.1831L 146.77 30.8169ZM 193.192 62.7249L 232.192 2.72494L 223.808 -2.72494L 184.808 57.2751L 193.192 62.7249Z"/></defs></svg>
